<svg xmlns="http://www.w3.org/2000/svg" width="16" height="16" viewBox="0 0 16 16"><title>assets</title><path d="M8,0a7.876,7.876,0,0,1,2.126.285,8.011,8.011,0,0,1,5.589,5.589,8.072,8.072,0,0,1,0,4.252,8.011,8.011,0,0,1-5.589,5.589,8.072,8.072,0,0,1-4.252,0A8.011,8.011,0,0,1,.285,10.126a8.072,8.072,0,0,1,0-4.252A8.011,8.011,0,0,1,5.874.285,7.876,7.876,0,0,1,8,0M8,15a6.863,6.863,0,0,0,1.858-.251,7.076,7.076,0,0,0,1.673-.707,6.994,6.994,0,0,0,2.507-2.507,7.076,7.076,0,0,0,.707-1.673,7,7,0,0,0,0-3.716,7.076,7.076,0,0,0-.707-1.673,6.994,6.994,0,0,0-2.507-2.507,7.076,7.076,0,0,0-1.673-.707,7,7,0,0,0-3.716,0,7.076,7.076,0,0,0-1.673.707A6.994,6.994,0,0,0,1.962,4.469a7.076,7.076,0,0,0-.707,1.673,7,7,0,0,0,0,3.716,7.076,7.076,0,0,0,.707,1.673,6.994,6.994,0,0,0,2.507,2.507,7.076,7.076,0,0,0,1.673.707A6.863,6.863,0,0,0,8,15m-.536-3.247H8.536V12.82H7.464V11.749M8,3.715a2.558,2.558,0,0,1,1.038.214,2.737,2.737,0,0,1,1.426,1.427,2.533,2.533,0,0,1,.214,1.037,2.215,2.215,0,0,1-.159.875,2.921,2.921,0,0,1-.4.673,4.407,4.407,0,0,1-.514.549c-.184.164-.356.329-.515.493a2.649,2.649,0,0,0-.4.527,1.26,1.26,0,0,0-.159.632v.536H7.464v-.536a2.214,2.214,0,0,1,.159-.874,2.95,2.95,0,0,1,.4-.674,4.331,4.331,0,0,1,.515-.548c.184-.165.355-.329.514-.494a2.661,2.661,0,0,0,.4-.523,1.251,1.251,0,0,0,.159-.636,1.568,1.568,0,0,0-.126-.627,1.6,1.6,0,0,0-.853-.854,1.64,1.64,0,0,0-1.256,0,1.6,1.6,0,0,0-.853.854,1.568,1.568,0,0,0-.126.627H5.322a2.6,2.6,0,0,1,.209-1.037,2.707,2.707,0,0,1,.574-.85,2.746,2.746,0,0,1,.853-.577A2.587,2.587,0,0,1,8,3.715Z" fill="#404040"/></svg>